<svg xmlns="http://www.w3.org/2000/svg" width="1024" height="1024" viewBox="0 0 1024 1024"><path fill="#4a3728" d="M157.625 297.927c1.944-6.736 3.432-13.397 5.589-20.176a221.9 221.9 0 0 1 28.756-57.996c24.816-35.882 64.755-64.946 108.195-73.049 13.241-2.47 27.55-1.781 41.064-1.728l39.957-.029 158.314-.051 157.831-.069 51.421-.208c8.257-.031 16.634-.123 24.806.055 24.822.541 49.458 12.041 64.666 31.878 10.841 14.141 15.73 27.116 18.634 44.515 3.99-.057 7.922-.384 11.609 1.464 2.519 1.262 4.133 3.425 4.902 6.113 1.355 4.734 1.151 77.71.696 86.636-.111 2.193-.19 4.868-1.321 6.79-1.483 2.52-4.038 4.701-6.78 5.702-6.622 2.418-14.05 3.739-20.888 5.549l-44.842 11.811a9188 9188 0 0 0-136.856 37.008c-.706.058-2.453.143-2.959.69-.104.779 3.799 1.14 4.317 1.214 10.07 2.824 21.213 5.435 31.424 8.088l116.17 29.22a2016 2016 0 0 0 31.873 7.81c29.451 7.053 30.491 4.394 30.398 34.85l-.112 31.074c.017 12.03.561 26.286-.274 38.209-.304 4.341-2.963 6.915-6.436 9.163-3.295.204-7.712.05-11.1.023-1.06 46.709.291 96.458.317 143.563 9.021.066 16.989-.779 17.35 10.471.176 5.482.193 10.845.183 16.33l.019 26.094.013 29.098c-.003 15.334 3.376 28.395-16.269 29.4-3.646 35.975-31.835 70.512-68.411 76.945-12.466 2.192-29.39 1.297-42.434 1.284l-65.601-.017-253.139-.051-64.535.04c-5.048.004-28.65.273-31.449-.533-12.361-3.556-31.181-12.317-43.522-17.483a5905 5905 0 0 1-54.828-23.113c-19.345-8.185-37.165-13.799-52.326-29.138-25.346-25.644-25.185-48.149-25.051-81.436-9.25-3.156-19.127-5.246-19.056-17.208.165-27.946-.798-56.579.297-84.454.373-9.485 11.843-7.817 18.531-6.607l.161-76.81c-.036-16.079-.56-34.011-.044-49.942a159 159 0 0 1-4.643-1.912c-6.334-2.763-10.926-6.156-13.465-12.861-2.154-5.688-1.239-65.524-1.236-75.259.008-27.193-.756-54.713.316-81.877.107-2.71.14-6.801 1.407-9.195 3.249-6.138 12.261-7.936 18.361-9.885"/><path fill="#6b4423" d="M505.411 235.771c13.551-.5 28.549-.263 42.158-.269l69.786.039 242.238.528c-.425 25.635-.201 54.21.198 79.819-35.254.406-70.985.136-106.259.036l-125.614-.026-229.498.061.066-79.548c35.301-.949 71.733.483 106.925-.64"/><path fill="#4a3728" d="M797.698 250.437c13.624-1.915 26.253 7.487 28.325 21.088 2.073 13.601-7.182 26.338-20.758 28.567a25.11 25.11 0 0 1-23.621-9.017 25.118 25.118 0 0 1 16.054-40.638"/><path fill="#e8c468" d="M798.327 264.951c5.536-1.405 11.165 1.936 12.584 7.469 1.419 5.532-1.907 11.17-7.436 12.604-5.549 1.439-11.212-1.903-12.637-7.456-1.424-5.553 1.932-11.207 7.489-12.617"/><path fill="#4a3728" d="M454.124 250.021c13.584-1.765 26.039 7.784 27.859 21.361 1.819 13.577-7.681 26.07-21.25 27.944-13.646 1.884-26.225-7.681-28.055-21.335s7.785-26.194 21.446-27.97"/><path fill="#e8c468" d="M454.373 264.683c5.362-1.849 11.211.969 13.107 6.315 1.895 5.345-.873 11.219-6.202 13.16-5.394 1.965-11.356-.844-13.274-6.255-1.919-5.411.942-11.348 6.369-13.22"/><path fill="#6b4423" d="m397.648 701.691 162.693-.1c.286 8.879-2.339 16.136 6.244 21.293 15.472 1.022 36.016.413 51.803.353l72.997-.134c2.046-.021 6.777-.023 8.695-.45 6.721-1.497 4.959-15.601 4.905-20.675l154.687-.183c-.497 18.74-.111 39.203-.136 58.08l-.011 22.074-462.04.07q.401-40.163.163-80.328"/><path fill="#4a3728" d="M802.143 715.295c13.774.379 24.651 11.82 24.334 25.596s-11.709 24.704-25.486 24.449c-13.865-.256-24.879-11.737-24.56-25.601s11.85-24.825 25.712-24.444"/><path fill="#e8c468" d="M798.58 730.548c15.5-.374 18.551 14.22 5.921 19.785-8.733.738-15.575-3.667-12.808-14.021.712-2.664 4.416-4.696 6.887-5.764"/><path fill="#4a3728" d="M453.581 715.731c13.667-1.787 26.198 7.832 28.005 21.496s-7.796 26.209-21.458 28.035c-13.688 1.828-26.263-7.796-28.073-21.487s7.833-26.253 21.526-28.044"/><path fill="#e8c468" d="M454.801 730.542c5.683-1.166 11.226 2.528 12.339 8.222s-2.634 11.202-8.338 12.261c-5.629 1.045-11.049-2.64-12.147-8.26s2.537-11.073 8.146-12.223"/><path fill="#6b4423" d="M398.319 447.542c54.53-.622 110.477.133 165.128.113l296.338-.102c-.849 25.537-.065 55.608.139 81.413l-40.799-.206q-57.919-.194-115.832.559c-6.058-11.905-15.98-22.536-27.18-29.743a78.86 78.86 0 0 0-60.88-10.535c-24.681 5.562-41.283 19.232-54.565 40.09l-162.133-.236z"/><path fill="#4a3728" d="M797.753 462.982c13.676-1.737 26.183 7.906 27.983 21.573s-7.785 26.22-21.444 28.083c-13.748 1.875-26.4-7.786-28.212-21.543s7.908-26.365 21.673-28.113"/><path fill="#e8c468" d="M798.047 477.743c5.404-1.848 11.284 1.025 13.147 6.424s-.994 11.287-6.387 13.165c-5.415 1.885-11.332-.985-13.202-6.406s1.017-11.328 6.442-13.183"/><path fill="#4a3728" d="M451.927 463.523c13.464-2.712 26.558 6.07 29.158 19.556s-6.29 26.507-19.797 28.996c-13.35 2.459-26.187-6.305-28.757-19.635-2.57-13.329 6.088-26.237 19.396-28.917"/><path fill="#e8c468" d="M456.043 477.776c5.647-.322 10.488 3.989 10.82 9.635s-3.97 10.495-9.615 10.837c-5.66.343-10.524-3.972-10.857-9.632s3.991-10.517 9.652-10.84"/><path fill="#6b4423" d="M381.76 239.486c1.29-.115.698-.238 1.788.308.65 1.645.528 71.357.566 78.292-8.841 2.489-18.829 6.076-27.609 9.002l-43.036 14.165a12520 12520 0 0 1-157.997 50.698l-1.694.072-.645-.788c-.893-3.958-.647-72.023.549-76.231 2.708-3.5 24.579-9.451 30.41-11.318l56.636-18.151 98.437-32.009c14.187-4.611 28.359-9.618 42.595-14.04"/><path fill="#4a3728" d="M331.884 268.55c13.288-2.191 25.833 6.811 28.012 20.101 2.178 13.29-6.837 25.827-20.129 27.993-13.273 2.162-25.789-6.838-27.965-20.109s6.812-25.797 20.082-27.985"/><path fill="#e8c468" d="M333.55 284.792a8.403 8.403 0 1 1 4.199 16.27 8.404 8.404 0 0 1-4.199-16.27"/><path fill="#4a3728" d="M201.059 312.233c13.293-.4 24.411 10.017 24.877 23.308s-9.894 24.46-23.183 24.993c-13.383.537-24.65-9.913-25.12-23.299-.469-13.386 10.038-24.6 23.426-25.002"/><path fill="#e8c468" d="M199.33 328.853a8.433 8.433 0 0 1 11.113 9.597 8.435 8.435 0 0 1-16.25 1.083 8.434 8.434 0 0 1 5.137-10.68"/><path fill="#c9a227" d="M252.118 376.922c7.124-3.508 21.374-7.76 29.267-10.359 21.87-7.202 44.161-13.602 66.143-20.488l31.193-9.981c14.782-4.755 16.275-5.628 32.019-5.531l19.738-.032 72.525-.022 198.371.095 57.528.145c11.563.066 23.861.402 35.325.13l.07 1.328c-3.297.586-10.571 2.748-13.947 3.669l-29.294 8.138-87.759 23.902c-8.84 2.349-26.323 7.525-34.268 8.978-4.702.86-28.207.223-34.606.207l-72.17-.063c-90.043-.781-180.091-.82-270.135-.116"/><path fill="#6b4423" d="M178.116 399.108c2.498-.102 20.27 4.323 24.383 5.295a5898 5898 0 0 1 73.135 17.761c35.954 8.83 72.871 16.763 108.825 25.639-.306 26.25-.029 53.144.03 79.439l-20.268-4.888c-25.095-5.633-49.914-12.158-74.872-18a6672 6672 0 0 1-81.388-19.161c-8.602-2.047-48.102-10.885-53.736-14.426-2.288-4.576-1.535-54.741-1.703-64.344 8.45-2.082 17.142-5.556 25.594-7.315"/><path fill="#4a3728" d="M198.757 421.625c13.207-2.59 25.998 6.064 28.506 19.286s-6.225 25.959-19.462 28.385c-13.122 2.405-25.724-6.235-28.21-19.342s6.076-25.761 19.166-28.329"/><path fill="#e8c468" d="M201.009 437.158a8.576 8.576 0 1 1 4.225 16.623 8.576 8.576 0 0 1-4.225-16.623"/><path fill="#4a3728" d="M334.902 452.687c13.304-.941 24.85 9.087 25.781 22.392s-9.107 24.843-22.413 25.763c-13.291.918-24.813-9.105-25.742-22.395s9.085-24.82 22.374-25.76"/><path fill="#e8c468" d="M334.114 468.63a8.455 8.455 0 1 1 4.781 16.22 8.455 8.455 0 0 1-4.781-16.22"/><path fill="#6b4423" d="M153.394 629.763c9.786 2.211 19.157 5.325 28.754 8.221a4217 4217 0 0 1 51.542 16.012l120.415 37.219c10.303 3.152 20.546 6.716 30.822 9.782-.839 25.438.281 53.04-.169 78.78a20348 20348 0 0 0-231.568-73.701z"/><path fill="#4a3728" d="M196.023 657.657c13.101-3.177 26.288 4.906 29.402 18.023 3.113 13.116-5.034 26.264-18.165 29.314-13.042 3.029-26.08-5.05-29.172-18.077s4.923-26.104 17.935-29.26"/><path fill="#e8c468" d="M199.731 672.732a8.466 8.466 0 1 1 4.15 16.416 8.466 8.466 0 0 1-4.15-16.416"/><path fill="#4a3728" d="M331.788 701.719c13.219-2.535 25.981 6.156 28.465 19.384 2.485 13.228-6.254 25.956-19.491 28.391-13.167 2.422-25.813-6.26-28.284-19.418s6.162-25.836 19.31-28.357"/><path fill="#e8c468" d="M335.309 717.207a8.42 8.42 0 1 1 1.83 16.741 8.42 8.42 0 0 1-1.83-16.741"/><path fill="#c9a227" d="M330.655 390.755c26.265-.453 53.469.074 79.836.177l120.676.017 65.088-.418c8.984-.048 22.513-.379 31.066.228 4.425.314 19.958 4.781 25.099 6.109l40.011 10.11c33.228 8.525 70.262 16.864 102.718 26.313-33.383.545-68.438-.192-102.053-.123-68.008 1.047-137.642.236-205.8.239l-65.047.069c-11.053.002-24.155.322-35.004-.58-4.455-.37-16.074-3.456-20.936-4.65l-31.259-7.611-106.71-25.789c17.665-5.245 26.729-3.991 44.914-3.979q28.701.09 57.401-.112"/><path fill="#c0780a" d="M627.859 501.703c.582-.092 2.402-.159 3.082-.142 19.829.505 36.975 7.238 50.954 21.089a62.6 62.6 0 0 1 16.534 29.368c9.27 36.967-15.831 45.269-27.43 74.892-3.918 10.008-2.899 29.292-2.89 40.62l-30.406.087-40.029.278c-.215-11.067.778-20.463-1.14-31.477-3.678-25.516-30.091-37.932-31.748-64.025-2.455-38.664 26.44-66.826 63.073-70.69"/><path fill="#4a3728" d="M628.56 535.588c2.459-.227 5.547-.376 7.999-.142 14.521 1.39 24.924 15.518 22.902 29.789a23.15 23.15 0 0 1-9.098 15.365c1.097 11.659 1.88 23.4 3.146 35.038-4.974.169-10.259.099-15.259.117l-24.904-.077c1.653-10.557 2.269-23.813 4.16-33.554-4.533-4.835-7.76-9.212-9.283-15.889a25.54 25.54 0 0 1 3.405-19.717c4.148-6.287 9.809-9.361 16.932-10.93"/><path fill="#e8c468" d="M631.967 573.493c-6.249-.832-10.757-6.405-10.265-12.69.493-6.284 5.814-11.087 12.116-10.935 6.303.151 11.386 5.205 11.576 11.506.189 6.301-4.582 11.651-10.864 12.181-.854.072-1.713.052-2.563-.062"/><path fill="#e8c468" d="M631.967 573.493c.85.114 1.709.134 2.563.062 2.001 7.412 2.02 19.305 2.067 27.038q-3.115.164-6.231.089c.241-9.729 1.062-17.741 1.601-27.189"/><path fill="#6b4423" d="M568.796 796.745c59.696.045 120.524-.579 180.132.183a97.6 97.6 0 0 1-26.992 48.464c-5.527 5.445-12.732 12.024-20.126 14.753-6.47 2.388-43.066 1.009-52.685.955l-183.938.345c19.735-19.337 33.694-36.272 39.856-64.438 21.141-.352 42.57-.143 63.753-.262"/><path fill="#6b4423" d="m467.302 157.715 1.381-.023c56.865-.595 115.056-.234 171.892-.048l38.716.095c5.25-.004 16.238-.268 20.869.424 5.8.868 17.458 11.515 21.66 15.618 10.67 10.419 20.3 26.646 24.443 41.014.63 2.186 1.503 3.841 1.533 6.151l-.822.441-174.661-.446c-21.844.028-44.438-.191-66.221.319-7.715-25.053-18.268-43.357-38.595-61.172-1.321-1.157-.85-.248-1.604-1.894z"/><path fill="#8b5a2b" d="M313.907 157.708c14.042-1.544 33.71 3.386 45.077 11.749 18.693 13.754 26.029 30.873 29.808 52.757-10.686 3.166-21.433 7.067-32.028 10.612l-38.857 12.786-88.039 29.144c-17.516 6.021-40.178 14.017-57.919 18.681 9.964-31.33 19.944-54.455 41.544-80 25.662-30.348 60.099-52.333 100.414-55.729"/><path fill="#8b5a2b" d="M172.12 727.569c4.734 1.051 15.659 5.162 20.831 6.859a2590 2590 0 0 0 37.637 11.8l158.84 50.539c-.266 17.274-6.815 31.996-18.469 44.519a120 120 0 0 1-3.561 3.308c-7.979 7.049-25.23 15.897-35.826 14.752-5.148-.557-25.786-9.622-31.588-12.036a5214 5214 0 0 1-51.353-21.355c-13.292-5.548-30.052-11.16-42.47-18.041-29.738-16.478-36.925-49.162-34.041-80.345"/><path fill="#8b5a2b" d="M171.632 565.271c14.307 3.835 29.713 7.25 44.151 10.706l50.975 12.465a8785 8785 0 0 0 121.61 28.884l.283 69.156c-8.7-2.186-19.039-5.768-27.705-8.489l-45.715-14.182-92.597-29.069c-16.881-5.362-33.845-10.439-50.617-16.124z"/><path fill="#8b5a2b" d="M171.845 492.244c8.958 1.619 20.004 4.521 29.001 6.616l58.283 13.705 88.071 20.91c13.369 3.151 27.786 5.869 40.904 9.291q.185 30.505-.063 61.008c-13.861-3.88-30.32-7.292-44.496-10.705L272.84 575.76l-64.489-15.51c-11.859-2.846-24.817-6.2-36.652-8.58-.716-17.442-.229-41.857.146-59.426"/><path fill="#8b5a2b" d="M401.887 616.954q85.02.384 170.04-.125c13.79 15.654 11.718 31.703 11.756 51.08l-18.075-.026-5.25.053.045 18.1-158.381.06z"/><path fill="#8b5a2b" d="M693.035 617.027c16.771-.579 36.424.036 53.402.07l96.073-.118.3 69.113c-3.404.119-7.098.073-10.528.093l-126.949-.045c-.122-6.186-.084-12.521-.11-18.721l-23.009.118c-.427-21.855-1.424-32.124 10.821-50.51"/><path fill="#8b5a2b" d="m512.675 542.748 41.806-.133c-7.607 24.314-5.687 38.302 7.26 59.759-34.785.36-70.561-.187-105.518-.128a4288 4288 0 0 1-54.159-.057l-.09-59.096c36.511-.494 74.068-.131 110.701-.345"/><path fill="#8b5a2b" d="M710.653 542.519c16.243-.288 33.389.046 49.725.101q41.082.25 82.163-.123l-.001 59.829-10.665.069-127.645.192c12.83-24.147 12.927-34.17 6.423-60.068"/><path fill="#6b4423" d="M364.609 158.092c19.56-.826 39.57.067 59.184-.316 6.539-.128 13.422-.084 19.935.199 5.269 3.099 9.507 6.897 14.084 10.727 18.619 15.583 24.904 30.969 33.004 52.704-29.286.494-60.44-.409-90.098-.332-2.225-23.999-16.044-49.28-36.109-62.982"/><path fill="#6b4423" d="m402.651 797.005 89.584-.04c-6.47 25.501-18.923 43.822-40.18 59.135-1.881 1.31-6.66 4.73-8.522 4.924-8.42.879-19.188.455-27.651.434a3835 3835 0 0 1-47.727-.006c22.365-17.178 33.818-35.739 34.496-64.447"/><path fill="#6b4423" d="M762.003 796.996c27.112-.235 56.007-.597 83.03-.006-5.24 25.725-17.948 45.837-41.757 57.564-16.148 7.678-28.578 6.883-45.866 6.878l-32.22.077c21.085-20.028 31.17-35.816 36.813-64.513"/><path fill="#6b4423" d="M723.64 157.893c12.005-.233 24.166.068 36.199-.059 9.07-.095 18.993-.711 27.802 1.563 31.973 8.255 48.144 30.96 56.055 61.58l-51.18.057c-9.927.018-20.93-.171-30.766.288-8.755-30.354-16.317-41.628-38.11-63.429"/><path fill="#c0780a" d="M575.041 680.453c38.159-.815 77.641.764 116.445.115l-.111 27.732c-12.626.553-28.284.112-41.195.111l-75.184.102z"/><path fill="#c0780a" d="M794.227 330.879c.248.052 1.217.166 1.424.412-.137.337-.955.69-1.354.916z"/><path fill="#cdbfab" fill-opacity=".984" d="M664.736 384.046c-.518-.074-4.421-.435-4.317-1.214.506-.547 2.253-.632 2.959-.69q.665.962 1.358 1.904"/></svg>